<?xml version="1.0" encoding="UTF-8"?>
<svg width="256px" height="256px" viewBox="0 0 256 256" version="1.1" xmlns="http://www.w3.org/2000/svg">
    <g>
        <polygon fill="#DD0031" points="128 0 128 0 128 0 0 45.9 19.6 215.2 128 276.8 128 276.8 128 276.8 236.4 215.2 256 45.9"/>
        <polygon fill="#C3002F" points="128 0 128 30.6 128 30.4 128 170.2 128 170.2 128 276.8 128 276.8 236.4 215.2 256 45.9"/>
        <path d="M128,30.4 L47.8,214.8 L47.8,214.8 L86.4,214.8 L86.4,214.8 L104.4,168 L151.6,168 L169.6,214.8 L208.2,214.8 L128,30.4 Z M142.4,142.4 L113.6,142.4 L128,107.2 L142.4,142.4 Z" fill="#FFFFFF"/>
    </g>
</svg>
