<?xml version="1.0" encoding="UTF-8"?>
<svg width="256px" height="256px" viewBox="0 0 256 256" version="1.1" xmlns="http://www.w3.org/2000/svg">
    <g fill="#092E20">
        <path d="M114.784,0 h53.278 v196.426 c-27.297,5.109-47.338,7.174-69.117,7.174 C33.873,203.6,0,183.341,0,126.648 C0,72.753,35.93,47.091,81.966,47.091 c7.746,0,13.604,0.622,20.675,2.278 V0 z M114.784,98.068 c-5.621-1.967-10.112-2.575-15.925-2.575 c-23.861,0-37.549,14.719-37.549,40.337 c0,25.02,13.061,38.387,37.549,38.387 c5.187,0,9.551-0.311,15.925-1.239 V98.068 z"/>
        <path d="M255.187,70.911 v97.51 c0,33.657-2.484,49.792-9.87,63.746 c-6.859,13.604-15.925,22.265-34.645,31.835 l-39.314-18.608 c18.72-8.789,27.785-16.493,33.533-28.309 c6.076-12.1,8.018-26.063,8.018-62.866 v-83.308 H255.187 z M201.909,0 h53.278 v47.091 h-53.278 V0 z"/>
    </g>
</svg>
